<?xml version="1.0" encoding="UTF-8"?>
<svg width="146px" height="40px" viewBox="0 0 146 40" version="1.1" xmlns="http://www.w3.org/2000/svg" xmlns:xlink="http://www.w3.org/1999/xlink">
    <title>GreatMinds_Bar_Black@2x</title>
    <g id="⚙️-Components" stroke="none" stroke-width="1" fill="none" fill-rule="evenodd">
        <g id="Logos" transform="translate(-120.000000, -607.000000)">
            <g id="Group" transform="translate(120.000000, 607.000000)">
                <polygon id="Path" fill="#000000" points="0 0 0 40 146 40 146 -1.77635684e-14"></polygon>
                <path d="M17.2841565,16 C19.6410871,16 20.7325372,17.3319507 21.0920569,18.4298175 L19.3274027,19.0184494 C19.1999236,18.529748 18.6541985,17.6426935 17.2841565,17.6426935 C16.1697888,17.6426935 14.8577569,18.352474 14.8577569,20.1053649 C14.8577569,21.7480584 15.9957584,22.6015746 17.3307078,22.6015746 C18.6885749,22.6015746 19.2579337,21.7590097 19.3624952,21.3154825 L16.8895443,21.3154825 L16.8895443,19.8281604 L21.0805981,19.8281604 L21.0805981,24.0334558 L19.5945358,24.0334558 L19.4785155,23.2346961 C19.1182797,23.7343487 18.3412302,24.1997785 17.1681362,24.1997785 C14.8806745,24.1997785 13,22.5913078 13,20.1053649 C13,17.6310578 14.9616022,16 17.2841565,16 Z M129.337552,16 C131.392973,16 132.170738,17.1765792 132.344769,18.0971721 L130.696135,18.5413838 C130.638125,18.1752 130.32444,17.5537143 129.326093,17.5537143 C128.640714,17.5537143 128.200266,17.9643877 128.200266,18.3969636 C128.200266,18.7747832 128.443766,19.0513032 129.012408,19.1512338 L130.116034,19.3510948 C131.683024,19.6289838 132.495882,20.5940662 132.495882,21.7145201 C132.495882,22.9458558 131.41589,24.1997785 129.453572,24.1997785 C127.178285,24.1997785 126.202855,22.7904844 126.086835,21.6809818 L127.770562,21.2928954 C127.840031,22.0143117 128.350663,22.6467487 129.477206,22.6467487 C130.196961,22.6467487 130.638125,22.3141033 130.638125,21.8260864 C130.638125,21.4263643 130.300807,21.137524 129.755082,21.0375935 L128.629971,20.8384169 C127.236295,20.5824305 126.389061,19.695376 126.389061,18.529748 C126.389061,17.0431104 127.758387,16 129.337552,16 Z M29.7720931,16.1670072 C31.3970933,16.1670072 32.4427082,17.2320201 32.4427082,18.630363 C32.4427082,19.695376 31.8267981,20.505087 30.8169919,20.8493682 L32.4892596,24.0334558 L30.468931,24.0334558 L28.9943275,21.1046701 L28.344041,21.1046701 L28.344041,24.0334558 L26.5092016,24.0334558 L26.5092016,16.1670072 L29.7720931,16.1670072 Z M42.8301047,16.1670072 L42.8301047,17.8199675 L39.4511929,17.8199675 L39.4511929,19.3182409 L42.5171364,19.3182409 L42.5171364,20.8603195 L39.4511929,20.8603195 L39.4511929,22.3695442 L42.8415635,22.3695442 L42.8415635,24.0334558 L37.6170698,24.0334558 L37.6170698,16.1670072 L42.8301047,16.1670072 Z M52.6574527,16.1670072 L55.72268,24.0334558 L53.7259852,24.0334558 L53.1337088,22.4359364 L49.9524612,22.4359364 L49.3601848,24.0334558 L47.4329589,24.0334558 L50.5332788,16.1670072 L52.6574527,16.1670072 Z M65.8214582,16.1670072 L65.8214582,17.8418701 L63.2783221,17.8418701 L63.2783221,24.0334558 L61.4449151,24.0334558 L61.4449151,17.8418701 L58.9139541,17.8418701 L58.9139541,16.1670072 L65.8214582,16.1670072 Z M81.7584917,16.1670072 L84.0223196,21.4818052 L86.1701273,16.1670072 L88.6896295,16.1670072 L88.6896295,24.0334558 L86.8905989,24.0334558 L86.8905989,18.8192728 L84.7420751,24.0334558 L83.2560128,24.0334558 L81.1082051,18.885665 L81.1082051,24.0334558 L79.3664685,24.0334558 L79.3664685,16.1670072 L81.7584917,16.1670072 Z M96.1521689,16.1663227 L96.1521689,24.0334558 L94.294412,24.0334558 L94.294412,16.1663227 L96.1521689,16.1663227 Z M103.950594,16.1670072 L107.038739,20.9492987 L107.038739,16.1670072 L108.872862,16.1670072 L108.872862,24.0334558 L106.934894,24.0334558 L103.544523,18.8623935 L103.544523,24.0334558 L101.721859,24.0334558 L101.721859,16.1670072 L103.950594,16.1670072 Z M117.450486,16.1670072 C119.923437,16.1670072 121.583529,17.6755474 121.583529,20.1053649 C121.583529,22.5358669 119.923437,24.0334558 117.438311,24.0334558 L114.466186,24.0334558 L114.466186,16.1670072 L117.450486,16.1670072 Z M117.36384,17.664271 L116.300309,17.664271 L116.300309,22.4600057 L117.36384,22.4600057 C118.622554,22.4600057 119.649755,21.7238057 119.649755,20.0671759 C119.649755,18.4112657 118.622554,17.664271 117.36384,17.664271 Z M51.5660026,18.0702644 L50.5561964,20.9287065 L52.5536074,20.9287065 L51.5660026,18.0702644 Z M29.3871273,17.7150202 L28.307136,17.7150202 L28.307136,19.7228383 L29.3871273,19.7228383 C30.1412592,19.7228383 30.5480463,19.3018442 30.5480463,18.7182096 C30.5480463,18.1000319 30.1412592,17.7150202 29.3871273,17.7150202 Z" id="Combined-Shape" fill="#FFFFFF"></path>
            </g>
        </g>
    </g>
</svg>